# xmcd
#
# Track frame offsets:
#	182
#	15102
#	26942
#	48445
#	69937
#	85535
#	103077
#	119035
#	134785
#	151477
#	173910
#	193637
#	215002
#	233572
#	256010
#	273110
#
# Disc length: 3845 seconds
#
# Revision: 3
# Processed by: cddbd v1.5.2PL0 Copyright (c) Steve Scherf et al.
# Submitted via: EasyCDDAExtractor 12.0.1.1
#
DISCID=d70f0310
DTITLE=Alvaro Torres - Solo Para Enamorados - 16 Exitos
DYEAR=2000
DGENRE=Latin
TTITLE0=Si Dios Me Quita La Vida
TTITLE1=Entrega Total
TTITLE2=Nada Se Compara Contigo
TTITLE3=Buenos Amigos
TTITLE4=Si Estuvieras Conmigo
TTITLE5=Hazme Olvidarla
TTITLE6=De Punta A Punta
TTITLE7=Ven Y Dame Un Poco Mas
TTITLE8=Mi Verdadero Amor
TTITLE9=Ni Tu, Ni Ella
TTITLE10=He Vivido Esperando Por Ti
TTITLE11=Un Dia De Estos
TTITLE12=Mi Otro Yo
TTITLE13=Reencuentro
TTITLE14=Stress
TTITLE15=Mujer De Nieve
EXTD=
EXTT0=
EXTT1=
EXTT2=
EXTT3=
EXTT4=
EXTT5=
EXTT6=
EXTT7=
EXTT8=
EXTT9=
EXTT10=
EXTT11=
EXTT12=
EXTT13=
EXTT14=
EXTT15=
PLAYORDER=
